<svg width="32" height="32" viewBox="0 0 32 32" fill="none" xmlns="http://www.w3.org/2000/svg">
<path d="M20.1734 28.6666C22.8391 27.7881 25.1596 26.0908 26.8043 23.8164C28.449 21.5421 29.3341 18.8067 29.3334 16C29.3341 13.1932 28.449 10.4578 26.8043 8.18349C25.1596 5.90913 22.8391 4.2118 20.1734 3.33329M20.1734 28.6666C17.4636 29.5646 14.5365 29.5646 11.8267 28.6666C9.15916 27.7898 6.83649 26.0932 5.18987 23.8187C3.54324 21.5442 2.65674 18.8079 2.65674 16C2.65674 13.192 3.54324 10.4557 5.18987 8.18118C6.83649 5.90668 9.15916 4.21008 11.8267 3.33329C14.5365 2.43529 17.4636 2.43529 20.1734 3.33329M20.1734 28.6666C22.841 27.7898 25.1637 26.0932 26.8103 23.8187C28.4569 21.5442 29.3434 18.8079 29.3434 16C29.3434 13.192 28.4569 10.4557 26.8103 8.18118C25.1637 5.90668 22.841 4.21008 20.1734 3.33329" stroke="black" stroke-width="2" stroke-linecap="round" stroke-linejoin="round"/>
<path d="M16 3.33325V28.6666" stroke="black" stroke-width="2" stroke-linecap="round" stroke-linejoin="round"/>
<path d="M5.85352 7.33333C7.09606 7.96114 8.39517 8.47007 9.73352 8.85333C11.7686 9.45244 13.8788 9.75775 16.0002 9.75999C18.0632 9.75891 20.1161 9.47173 22.1002 8.90666C23.4805 8.50762 24.8198 7.97858 26.1002 7.32666M6.07352 24.9C7.29766 24.2986 8.57404 23.8099 9.88685 23.44C15.2205 21.9466 20.9176 22.4736 25.8868 24.92" stroke="black" stroke-width="2" stroke-linecap="round" stroke-linejoin="round"/>
<path d="M3.3335 16H28.6668" stroke="black" stroke-width="2" stroke-linecap="round" stroke-linejoin="round"/>
<path d="M19.6602 3.33325L19.7669 3.51992C21.9755 7.28638 23.1398 11.5737 23.1398 15.9399C23.1398 20.3062 21.9755 24.5935 19.7669 28.3599M12.1669 3.33325L12.0602 3.51992C9.85399 7.28842 8.69387 11.5776 8.69973 15.9444C8.70559 20.3113 9.87721 24.5973 12.0936 28.3599" stroke="black" stroke-width="2" stroke-linecap="round" stroke-linejoin="round"/>
</svg>
