<svg width="16" height="16" viewBox="0 0 16 16" fill="none" xmlns="http://www.w3.org/2000/svg">
<path d="M13.9335 1.33337H2.06683C1.87234 1.33337 1.68581 1.41064 1.54828 1.54816C1.41076 1.68569 1.3335 1.87222 1.3335 2.06671V13.9334C1.3335 14.0297 1.35246 14.125 1.38932 14.214C1.42617 14.303 1.48019 14.3838 1.54828 14.4519C1.61638 14.52 1.69722 14.574 1.78619 14.6109C1.87517 14.6477 1.97053 14.6667 2.06683 14.6667H8.4535V9.50004H6.72016V7.50004H8.4535V6.00004C8.41759 5.64788 8.45917 5.29212 8.57531 4.95773C8.69145 4.62334 8.87934 4.3184 9.12581 4.06431C9.37227 3.81023 9.67134 3.61313 10.002 3.48687C10.3327 3.3606 10.6871 3.30821 11.0402 3.33337C11.559 3.33018 12.0777 3.35689 12.5935 3.41337V5.21337H11.5335C10.6935 5.21337 10.5335 5.61337 10.5335 6.19337V7.48004H12.5335L12.2735 9.48004H10.5335V14.6667H13.9335C14.0298 14.6667 14.1252 14.6477 14.2141 14.6109C14.3031 14.574 14.3839 14.52 14.452 14.4519C14.5201 14.3838 14.5742 14.303 14.611 14.214C14.6479 14.125 14.6668 14.0297 14.6668 13.9334V2.06671C14.6668 1.9704 14.6479 1.87504 14.611 1.78607C14.5742 1.6971 14.5201 1.61626 14.452 1.54816C14.3839 1.48007 14.3031 1.42605 14.2141 1.3892C14.1252 1.35234 14.0298 1.33337 13.9335 1.33337Z" fill="#0359FF"/>
</svg>
