<svg width="32" height="32" viewBox="0 0 32 32" fill="none" xmlns="http://www.w3.org/2000/svg">
<g clip-path="url(#clip0_208_42)">
<path d="M18.2126 15.3H23.0876C23.5626 15.3 23.9501 14.9187 23.9501 14.4375C23.9501 13.9625 23.5626 13.575 23.0876 13.575H18.2126C17.7376 13.575 17.3501 13.9625 17.3501 14.4375C17.3501 14.9125 17.7376 15.3 18.2126 15.3Z" fill="#231F20"/>
<path d="M27.2188 9.9187H12.6062L10.2312 7.41245C10.025 7.19995 9.75 7.07495 9.45625 7.07495L1.0875 7.01245C0.79375 7.0187 0.53125 7.12495 0.325 7.32495C0.11875 7.52495 0.00625 7.79995 0.00625 8.08745L0 27.4437C0 27.7312 0.1125 28.0062 0.3125 28.2062C0.51875 28.4062 0.7875 28.5187 1.075 28.5187H27.2062C27.8 28.5187 28.2812 28.0375 28.2875 27.4375L28.2938 10.9937C28.2938 10.7062 28.1813 10.4312 27.9813 10.2312C27.775 10.0312 27.5063 9.9187 27.2188 9.9187ZM26.1313 26.3687H2.15L2.14375 9.17495L8.975 9.22495L11.3562 11.7375C11.5625 11.9562 11.8438 12.075 12.1375 12.075H26.1375L26.1313 26.3687Z" fill="#231F20"/>
<path d="M31.6874 6.65002C31.4874 6.45002 31.2124 6.33752 30.9249 6.33752H16.3124L13.9374 3.83127C13.7374 3.61877 13.4562 3.50002 13.1624 3.49377L4.79365 3.43127H4.7874C4.50615 3.43127 4.23115 3.54377 4.03115 3.74377C3.8249 3.94377 3.7124 4.21877 3.7124 4.50627V6.18752H5.8624V5.59377L12.6937 5.64377L15.0749 8.15627C15.2812 8.36877 15.5624 8.49377 15.8562 8.49377H29.8562L29.8499 22.7875H28.9749V24.9375H30.9249C31.5187 24.9375 31.9999 24.4563 31.9999 23.8625L32.0062 7.41252C31.9999 7.12502 31.8874 6.85002 31.6874 6.65002Z" fill="#231F20"/>
</g>
<defs>
<clipPath id="clip0_208_42">
<rect width="32" height="32" fill="white"/>
</clipPath>
</defs>
</svg>
