<svg width="97" height="28" viewBox="0 0 97 28" fill="none" xmlns="http://www.w3.org/2000/svg">
<path d="M2.44098 8.52741C2.12687 8.52741 1.86108 8.41868 1.64361 8.20121C1.42615 7.98375 1.31742 7.71796 1.31742 7.40384C1.31742 7.08972 1.42615 6.82393 1.64361 6.60647C1.86108 6.389 2.12687 6.28027 2.44098 6.28027C2.74302 6.28027 2.99673 6.389 3.20211 6.60647C3.41958 6.82393 3.52831 7.08972 3.52831 7.40384C3.52831 7.71796 3.41958 7.98375 3.20211 8.20121C2.99673 8.41868 2.74302 8.52741 2.44098 8.52741ZM3.23836 10.1403V20.0712H1.58925V10.1403H3.23836ZM9.98146 7.44008C11.3587 7.44008 12.5488 7.69983 13.5515 8.21933C14.5663 8.72675 15.3396 9.45767 15.8711 10.4121C16.4148 11.3665 16.6866 12.4901 16.6866 13.7828C16.6866 15.0755 16.4148 16.1991 15.8711 17.1535C15.3396 18.0959 14.5663 18.8207 13.5515 19.3282C12.5488 19.8235 11.3587 20.0712 9.98146 20.0712H6.04897V7.44008H9.98146ZM9.98146 18.712C11.6124 18.712 12.8568 18.2831 13.7146 17.4253C14.5724 16.5555 15.0013 15.3413 15.0013 13.7828C15.0013 12.2122 14.5663 10.986 13.6965 10.104C12.8387 9.22209 11.6004 8.78112 9.98146 8.78112H7.69808V18.712H9.98146ZM23.193 20.2343C22.2628 20.2343 21.4171 20.0228 20.6559 19.6C19.9069 19.1771 19.3149 18.5791 18.88 17.8059C18.4571 17.0206 18.2457 16.1145 18.2457 15.0876C18.2457 14.0728 18.4632 13.1787 18.8981 12.4055C19.3451 11.6202 19.9492 11.0222 20.7103 10.6114C21.4714 10.1886 22.3232 9.97717 23.2655 9.97717C24.2079 9.97717 25.0596 10.1886 25.8207 10.6114C26.5818 11.0222 27.1799 11.6142 27.6148 12.3874C28.0618 13.1606 28.2853 14.0607 28.2853 15.0876C28.2853 16.1145 28.0558 17.0206 27.5967 17.8059C27.1497 18.5791 26.5396 19.1771 25.7664 19.6C24.9931 20.0228 24.1354 20.2343 23.193 20.2343ZM23.193 18.7845C23.785 18.7845 24.3407 18.6456 24.8602 18.3677C25.3797 18.0898 25.7966 17.673 26.1107 17.1173C26.4369 16.5615 26.6 15.885 26.6 15.0876C26.6 14.2902 26.4429 13.6137 26.1288 13.0579C25.8147 12.5022 25.4039 12.0914 24.8965 11.8256C24.3891 11.5478 23.8394 11.4088 23.2474 11.4088C22.6433 11.4088 22.0876 11.5478 21.5802 11.8256C21.0848 12.0914 20.6861 12.5022 20.3841 13.0579C20.0821 13.6137 19.931 14.2902 19.931 15.0876C19.931 15.8971 20.076 16.5796 20.366 17.1354C20.668 17.6911 21.0667 18.1079 21.562 18.3858C22.0574 18.6516 22.601 18.7845 23.193 18.7845ZM43.6827 10.1403L40.5838 20.0712H38.8804L36.4882 12.1881L34.0961 20.0712H32.3927L29.2757 10.1403H30.961L33.2444 18.4764L35.709 10.1403H37.3943L39.8046 18.4945L42.0517 10.1403H43.6827ZM50.1579 9.95905C51.3661 9.95905 52.3447 10.3275 53.0937 11.0645C53.8428 11.7894 54.2173 12.8405 54.2173 14.2177V20.0712H52.5863V14.4533C52.5863 13.4627 52.3386 12.7076 51.8433 12.1881C51.348 11.6565 50.6714 11.3907 49.8136 11.3907C48.9438 11.3907 48.2491 11.6625 47.7296 12.2062C47.2222 12.7499 46.9685 13.5412 46.9685 14.5802V20.0712H45.3194V10.1403H46.9685V11.5538C47.2947 11.0464 47.7356 10.6537 48.2914 10.3759C48.8592 10.098 49.4814 9.95905 50.1579 9.95905ZM58.5602 6.66084V20.0712H56.9111V6.66084H58.5602ZM65.702 20.2343C64.7717 20.2343 63.926 20.0228 63.1649 19.6C62.4159 19.1771 61.8239 18.5791 61.389 17.8059C60.9661 17.0206 60.7547 16.1145 60.7547 15.0876C60.7547 14.0728 60.9722 13.1787 61.4071 12.4055C61.8541 11.6202 62.4582 11.0222 63.2193 10.6114C63.9804 10.1886 64.8322 9.97717 65.7745 9.97717C66.7168 9.97717 67.5686 10.1886 68.3297 10.6114C69.0908 11.0222 69.6889 11.6142 70.1238 12.3874C70.5708 13.1606 70.7943 14.0607 70.7943 15.0876C70.7943 16.1145 70.5648 17.0206 70.1057 17.8059C69.6587 18.5791 69.0486 19.1771 68.2753 19.6C67.5021 20.0228 66.6444 20.2343 65.702 20.2343ZM65.702 18.7845C66.294 18.7845 66.8497 18.6456 67.3692 18.3677C67.8887 18.0898 68.3055 17.673 68.6197 17.1173C68.9459 16.5615 69.109 15.885 69.109 15.0876C69.109 14.2902 68.9519 13.6137 68.6378 13.0579C68.3237 12.5022 67.9129 12.0914 67.4055 11.8256C66.8981 11.5478 66.3484 11.4088 65.7564 11.4088C65.1523 11.4088 64.5966 11.5478 64.0891 11.8256C63.5938 12.0914 63.1951 12.5022 62.8931 13.0579C62.5911 13.6137 62.44 14.2902 62.44 15.0876C62.44 15.8971 62.585 16.5796 62.875 17.1354C63.177 17.6911 63.5757 18.1079 64.071 18.3858C64.5664 18.6516 65.11 18.7845 65.702 18.7845ZM72.3464 15.0695C72.3464 14.0546 72.5518 13.1667 72.9626 12.4055C73.3734 11.6323 73.9351 11.0343 74.6479 10.6114C75.3728 10.1886 76.1762 9.97717 77.0582 9.97717C77.928 9.97717 78.6831 10.1644 79.3234 10.539C79.9638 10.9135 80.441 11.3847 80.7551 11.9525V10.1403H82.4223V20.0712H80.7551V18.2227C80.4289 18.8026 79.9396 19.2859 79.2872 19.6725C78.6469 20.047 77.8978 20.2343 77.0401 20.2343C76.1581 20.2343 75.3607 20.0168 74.6479 19.5819C73.9351 19.1469 73.3734 18.5368 72.9626 17.7515C72.5518 16.9663 72.3464 16.0722 72.3464 15.0695ZM80.7551 15.0876C80.7551 14.3386 80.6041 13.6862 80.302 13.1304C80 12.5747 79.5892 12.1518 79.0697 11.8619C78.5623 11.5598 78.0005 11.4088 77.3844 11.4088C76.7682 11.4088 76.2064 11.5538 75.699 11.8437C75.1916 12.1337 74.7869 12.5565 74.4848 13.1123C74.1828 13.668 74.0318 14.3204 74.0318 15.0695C74.0318 15.8306 74.1828 16.4951 74.4848 17.0629C74.7869 17.6186 75.1916 18.0475 75.699 18.3496C76.2064 18.6395 76.7682 18.7845 77.3844 18.7845C78.0005 18.7845 78.5623 18.6395 79.0697 18.3496C79.5892 18.0475 80 17.6186 80.302 17.0629C80.6041 16.4951 80.7551 15.8366 80.7551 15.0876ZM84.593 15.0695C84.593 14.0546 84.7984 13.1667 85.2091 12.4055C85.6199 11.6323 86.1817 11.0343 86.8945 10.6114C87.6194 10.1886 88.4288 9.97717 89.3229 9.97717C90.0961 9.97717 90.8149 10.1584 91.4794 10.5208C92.1439 10.8712 92.6513 11.3363 93.0016 11.9162V6.66084H94.6689V20.0712H93.0016V18.2046C92.6754 18.7966 92.1922 19.2859 91.5519 19.6725C90.9116 20.047 90.1625 20.2343 89.3047 20.2343C88.4228 20.2343 87.6194 20.0168 86.8945 19.5819C86.1817 19.1469 85.6199 18.5368 85.2091 17.7515C84.7984 16.9663 84.593 16.0722 84.593 15.0695ZM93.0016 15.0876C93.0016 14.3386 92.8506 13.6862 92.5486 13.1304C92.2465 12.5747 91.8358 12.1518 91.3163 11.8619C90.8089 11.5598 90.2471 11.4088 89.6309 11.4088C89.0148 11.4088 88.453 11.5538 87.9456 11.8437C87.4382 12.1337 87.0334 12.5565 86.7314 13.1123C86.4294 13.668 86.2783 14.3204 86.2783 15.0695C86.2783 15.8306 86.4294 16.4951 86.7314 17.0629C87.0334 17.6186 87.4382 18.0475 87.9456 18.3496C88.453 18.6395 89.0148 18.7845 89.6309 18.7845C90.2471 18.7845 90.8089 18.6395 91.3163 18.3496C91.8358 18.0475 92.2465 17.6186 92.5486 17.0629C92.8506 16.4951 93.0016 15.8366 93.0016 15.0876Z" fill="black"/>
</svg>
