<svg width="41" height="29" viewBox="0 0 41 29" fill="none" xmlns="http://www.w3.org/2000/svg">
<rect x="0.724121" y="0.530518" width="40.1628" height="28.0814" rx="14.0407" fill="white"/>
<rect width="16" height="16" transform="translate(12.8057 6.57117)" fill="white"/>
<path d="M16.8058 11.2378H20.1392C20.316 11.2378 20.4855 11.308 20.6106 11.4331C20.7356 11.5581 20.8058 11.7276 20.8058 11.9045C20.8058 12.0813 20.7356 12.2508 20.6106 12.3759C20.4855 12.5009 20.316 12.5711 20.1392 12.5711H16.8058C16.629 12.5711 16.4594 12.5009 16.3344 12.3759C16.2094 12.2508 16.1392 12.0813 16.1392 11.9045C16.1392 11.7276 16.2094 11.5581 16.3344 11.4331C16.4594 11.308 16.629 11.2378 16.8058 11.2378ZM21.4725 16.5711H24.8058C24.9826 16.5711 25.1522 16.6414 25.2772 16.7664C25.4023 16.8914 25.4725 17.061 25.4725 17.2378C25.4725 17.4146 25.4023 17.5842 25.2772 17.7092C25.1522 17.8342 24.9826 17.9045 24.8058 17.9045H21.4725C21.2957 17.9045 21.1261 17.8342 21.0011 17.7092C20.8761 17.5842 20.8058 17.4146 20.8058 17.2378C20.8058 17.061 20.8761 16.8914 21.0011 16.7664C21.1261 16.6414 21.2957 16.5711 21.4725 16.5711ZM16.8058 13.9045H24.8058C24.9826 13.9045 25.1522 13.9747 25.2772 14.0997C25.4023 14.2247 25.4725 14.3943 25.4725 14.5711C25.4725 14.7479 25.4023 14.9175 25.2772 15.0425C25.1522 15.1676 24.9826 15.2378 24.8058 15.2378H16.8058C16.629 15.2378 16.4594 15.1676 16.3344 15.0425C16.2094 14.9175 16.1392 14.7479 16.1392 14.5711C16.1392 14.3943 16.2094 14.2247 16.3344 14.0997C16.4594 13.9747 16.629 13.9045 16.8058 13.9045Z" fill="black"/>
</svg>
