<svg width="29" height="22" viewBox="0 0 29 22" fill="none" xmlns="http://www.w3.org/2000/svg">
<path d="M28.6874 3.65002C28.4874 3.45002 28.2124 3.33752 27.9249 3.33752H13.3124L10.9374 0.831274C10.7374 0.618774 10.4562 0.500024 10.1624 0.493774L1.79365 0.431274H1.7874C1.50615 0.431274 1.23115 0.543774 1.03115 0.743774C0.824902 0.943774 0.712402 1.21877 0.712402 1.50627V3.18752H2.8624V2.59377L9.69365 2.64377L12.0749 5.15627C12.2812 5.36877 12.5624 5.49377 12.8562 5.49377H26.8562L26.8499 19.7875H25.9749V21.9375H27.9249C28.5187 21.9375 28.9999 21.4563 28.9999 20.8625L29.0062 4.41252C28.9999 4.12502 28.8874 3.85002 28.6874 3.65002Z" fill="#231F20"/>
</svg>
