<svg width="15" height="15" viewBox="0 0 15 15" fill="none" xmlns="http://www.w3.org/2000/svg">
<path d="M7.08333 5.32667C6.7359 5.32667 6.39626 5.42969 6.10738 5.62272C5.8185 5.81574 5.59334 6.0901 5.46038 6.41109C5.32743 6.73208 5.29264 7.08528 5.36042 7.42604C5.4282 7.7668 5.59551 8.07981 5.84118 8.32549C6.08686 8.57116 6.39987 8.73847 6.74063 8.80625C7.08139 8.87403 7.43459 8.83924 7.75558 8.70628C8.07657 8.57332 8.35092 8.34817 8.54395 8.05929C8.73697 7.7704 8.84 7.43077 8.84 7.08333C8.84 6.85264 8.79456 6.62422 8.70628 6.41109C8.618 6.19796 8.48861 6.0043 8.32549 5.84118C8.16236 5.67806 7.96871 5.54867 7.75558 5.46038C7.54245 5.3721 7.31402 5.32667 7.08333 5.32667ZM14.1171 3.59125C14.1134 3.04425 14.0126 2.50224 13.8196 1.99042C13.6774 1.61589 13.4574 1.27577 13.1742 0.992506C12.8909 0.709238 12.5508 0.489258 12.1763 0.347083C11.6644 0.154037 11.1224 0.0533098 10.5754 0.0495833C9.66167 -4.74975e-08 9.3925 0 7.08333 0C4.77417 0 4.505 -4.74975e-08 3.59125 0.0495833C3.04425 0.0533098 2.50224 0.154037 1.99042 0.347083C1.61589 0.489258 1.27577 0.709238 0.992506 0.992506C0.709238 1.27577 0.489258 1.61589 0.347083 1.99042C0.154037 2.50224 0.0533098 3.04425 0.0495833 3.59125C-4.74975e-08 4.505 0 4.77417 0 7.08333C0 9.3925 -4.74975e-08 9.66167 0.0495833 10.5754C0.0572077 11.1243 0.157798 11.668 0.347083 12.1833C0.488628 12.5561 0.708425 12.8943 0.991667 13.175C1.27372 13.46 1.61457 13.6799 1.99042 13.8196C2.50224 14.0126 3.04425 14.1134 3.59125 14.1171C4.505 14.1667 4.77417 14.1667 7.08333 14.1667C9.3925 14.1667 9.66167 14.1667 10.5754 14.1171C11.1224 14.1134 11.6644 14.0126 12.1763 13.8196C12.5521 13.6799 12.8929 13.46 13.175 13.175C13.4582 12.8943 13.678 12.5561 13.8196 12.1833C14.0124 11.669 14.1132 11.1247 14.1171 10.5754C14.1667 9.66167 14.1667 9.3925 14.1667 7.08333C14.1667 4.77417 14.1667 4.505 14.1171 3.59125ZM12.3179 9.25792C12.2952 9.69503 12.2019 10.1256 12.0417 10.5329C11.9042 10.8727 11.6997 11.1814 11.4405 11.4405C11.1814 11.6997 10.8727 11.9042 10.5329 12.0417C10.1217 12.193 9.68878 12.2767 9.25083 12.2896C8.69125 12.2896 8.5425 12.2896 7.08333 12.2896C5.62417 12.2896 5.47542 12.2896 4.91583 12.2896C4.47789 12.2767 4.04493 12.193 3.63375 12.0417C3.28249 11.9111 2.96528 11.7029 2.70583 11.4325C2.44918 11.1784 2.25097 10.8714 2.125 10.5329C1.9731 10.1222 1.89168 9.68871 1.88417 9.25083C1.88417 8.69125 1.88417 8.5425 1.88417 7.08333C1.88417 5.62417 1.88417 5.47542 1.88417 4.91583C1.89168 4.47796 1.9731 4.0445 2.125 3.63375C2.25553 3.28249 2.46378 2.96528 2.73417 2.70583C2.9894 2.45057 3.29606 2.25257 3.63375 2.125C4.04493 1.9737 4.47789 1.88998 4.91583 1.87708C5.47542 1.87708 5.62417 1.87708 7.08333 1.87708C8.5425 1.87708 8.69125 1.87708 9.25083 1.87708C9.68878 1.88998 10.1217 1.9737 10.5329 2.125C10.8842 2.25553 11.2014 2.46378 11.4608 2.73417C11.7175 2.98828 11.9157 3.29526 12.0417 3.63375C12.193 4.04493 12.2767 4.47789 12.2896 4.91583C12.2896 5.47542 12.2896 5.62417 12.2896 7.08333C12.2896 8.5425 12.3392 8.69125 12.3179 9.25083V9.25792ZM11.1846 3.98792C11.1002 3.75911 10.9673 3.55133 10.7948 3.3789C10.6224 3.20647 10.4146 3.0735 10.1858 2.98917C9.87167 2.88027 9.54079 2.82752 9.20833 2.83333C8.65583 2.83333 8.5 2.83333 7.08333 2.83333C5.66667 2.83333 5.51083 2.83333 4.95833 2.83333C4.62419 2.8366 4.29326 2.89895 3.98083 3.0175C3.75553 3.09801 3.54995 3.22555 3.37775 3.39164C3.20554 3.55774 3.07067 3.75859 2.98208 3.98083C2.87922 4.2963 2.82896 4.62655 2.83333 4.95833C2.83333 5.51083 2.83333 5.66667 2.83333 7.08333C2.83333 8.5 2.83333 8.65583 2.83333 9.20833C2.84036 9.5421 2.90259 9.8724 3.0175 10.1858C3.10184 10.4146 3.23481 10.6224 3.40723 10.7948C3.57966 10.9673 3.78745 11.1002 4.01625 11.1846C4.31847 11.2957 4.6365 11.3579 4.95833 11.3688C5.51083 11.3688 5.66667 11.3688 7.08333 11.3688C8.5 11.3688 8.65583 11.3688 9.20833 11.3688C9.54248 11.3655 9.87341 11.3031 10.1858 11.1846C10.4146 11.1002 10.6224 10.9673 10.7948 10.7948C10.9673 10.6224 11.1002 10.4146 11.1846 10.1858C11.3031 9.87341 11.3655 9.54248 11.3688 9.20833C11.3688 8.65583 11.3688 8.5 11.3688 7.08333C11.3688 5.66667 11.3688 5.51083 11.3688 4.95833C11.369 4.62386 11.3065 4.2923 11.1846 3.98083V3.98792ZM7.08333 9.78917C6.72833 9.78917 6.37682 9.71913 6.04893 9.58306C5.72104 9.44699 5.42322 9.24757 5.17252 8.99622C4.92183 8.74487 4.72319 8.44652 4.58798 8.11828C4.45277 7.79003 4.38365 7.43833 4.38458 7.08333C4.38458 6.54787 4.54346 6.02444 4.84109 5.57932C5.13873 5.1342 5.56174 4.78739 6.05658 4.5828C6.55142 4.37821 7.09584 4.32504 7.62091 4.43002C8.14598 4.535 8.6281 4.79341 9.00624 5.17254C9.38437 5.55167 9.64152 6.03446 9.74512 6.55981C9.84872 7.08515 9.79413 7.62943 9.58824 8.12373C9.38236 8.61803 9.03444 9.04013 8.58854 9.3366C8.14264 9.63307 7.6188 9.79057 7.08333 9.78917ZM9.91667 4.90875C9.76009 4.89218 9.61518 4.81824 9.50986 4.70119C9.40454 4.58414 9.34627 4.43225 9.34627 4.27479C9.34627 4.11733 9.40454 3.96545 9.50986 3.8484C9.61518 3.73134 9.76009 3.65741 9.91667 3.64083C10.0732 3.65741 10.2182 3.73134 10.3235 3.8484C10.4288 3.96545 10.4871 4.11733 10.4871 4.27479C10.4871 4.43225 10.4288 4.58414 10.3235 4.70119C10.2182 4.81824 10.0732 4.89218 9.91667 4.90875Z" fill="#FF7878"/>
</svg>
