<svg width="18" height="18" viewBox="0 0 18 18" fill="none" xmlns="http://www.w3.org/2000/svg">
<path d="M17.2498 7.28249C17.2869 6.20898 17.0521 5.1435 16.5673 4.18499C16.2383 3.79169 15.7818 3.52627 15.2773 3.43499C13.1904 3.24563 11.0949 3.16802 8.99978 3.20249C6.91226 3.16646 4.82431 3.24156 2.74478 3.42749C2.33364 3.50228 1.95316 3.69512 1.64978 3.98249C0.974776 4.60499 0.899776 5.66999 0.824776 6.56999C0.71596 8.18816 0.71596 9.81182 0.824776 11.43C0.846474 11.9365 0.921896 12.4394 1.04978 12.93C1.14021 13.3088 1.32317 13.6592 1.58228 13.95C1.88773 14.2526 2.27706 14.4564 2.69978 14.535C4.31671 14.7346 5.94594 14.8173 7.57478 14.7825C10.1998 14.82 12.5023 14.7825 15.2248 14.5725C15.6579 14.4987 16.0582 14.2946 16.3723 13.9875C16.5822 13.7774 16.7391 13.5203 16.8298 13.2375C17.098 12.4145 17.2297 11.5531 17.2198 10.6875C17.2498 10.2675 17.2498 7.73249 17.2498 7.28249ZM7.30478 11.1375V6.49499L11.7448 8.82749C10.4998 9.51749 8.85728 10.2975 7.30478 11.1375Z" fill="#FF1616"/>
</svg>
