<svg width="94" height="15" viewBox="0 0 94 15" fill="none" xmlns="http://www.w3.org/2000/svg">
<path d="M1.44098 2.52741C1.12687 2.52741 0.861078 2.41868 0.643613 2.20121C0.426148 1.98375 0.317416 1.71796 0.317416 1.40384C0.317416 1.08972 0.426148 0.823935 0.643613 0.60647C0.861078 0.389005 1.12687 0.280272 1.44098 0.280272C1.74302 0.280272 1.99673 0.389005 2.20211 0.60647C2.41958 0.823935 2.52831 1.08972 2.52831 1.40384C2.52831 1.71796 2.41958 1.98375 2.20211 2.20121C1.99673 2.41868 1.74302 2.52741 1.44098 2.52741ZM2.23836 4.14027V14.0712H0.589247V4.14027H2.23836ZM8.98146 1.44008C10.3587 1.44008 11.5488 1.69983 12.5515 2.21933C13.5663 2.72675 14.3396 3.45767 14.8711 4.4121C15.4148 5.36653 15.6866 6.4901 15.6866 7.78281C15.6866 9.07552 15.4148 10.1991 14.8711 11.1535C14.3396 12.0959 13.5663 12.8207 12.5515 13.3282C11.5488 13.8235 10.3587 14.0712 8.98146 14.0712H5.04897V1.44008H8.98146ZM8.98146 12.712C10.6124 12.712 11.8568 12.2831 12.7146 11.4253C13.5724 10.5555 14.0013 9.34131 14.0013 7.78281C14.0013 6.21223 13.5663 4.98597 12.6965 4.10403C11.8387 3.22209 10.6004 2.78112 8.98146 2.78112H6.69808V12.712H8.98146ZM22.193 14.2343C21.2628 14.2343 20.4171 14.0228 19.6559 13.6C18.9069 13.1771 18.3149 12.5791 17.88 11.8059C17.4571 11.0206 17.2457 10.1145 17.2457 9.0876C17.2457 8.07276 17.4632 7.17874 17.8981 6.40553C18.3451 5.62024 18.9492 5.02221 19.7103 4.61145C20.4714 4.1886 21.3232 3.97717 22.2655 3.97717C23.2079 3.97717 24.0596 4.1886 24.8207 4.61145C25.5818 5.02221 26.1799 5.6142 26.6148 6.38741C27.0618 7.16062 27.2853 8.06068 27.2853 9.0876C27.2853 10.1145 27.0558 11.0206 26.5967 11.8059C26.1497 12.5791 25.5396 13.1771 24.7664 13.6C23.9931 14.0228 23.1354 14.2343 22.193 14.2343ZM22.193 12.7845C22.785 12.7845 23.3407 12.6456 23.8602 12.3677C24.3797 12.0898 24.7966 11.673 25.1107 11.1173C25.4369 10.5615 25.6 9.88497 25.6 9.0876C25.6 8.29023 25.4429 7.61367 25.1288 7.05793C24.8147 6.50218 24.4039 6.09142 23.8965 5.82563C23.3891 5.54775 22.8394 5.40882 22.2474 5.40882C21.6433 5.40882 21.0876 5.54775 20.5802 5.82563C20.0848 6.09142 19.6861 6.50218 19.3841 7.05793C19.0821 7.61367 18.931 8.29023 18.931 9.0876C18.931 9.89705 19.076 10.5796 19.366 11.1354C19.668 11.6911 20.0667 12.1079 20.562 12.3858C21.0574 12.6516 21.601 12.7845 22.193 12.7845ZM42.6827 4.14027L39.5838 14.0712H37.8804L35.4882 6.18807L33.0961 14.0712H31.3927L28.2757 4.14027H29.961L32.2444 12.4764L34.709 4.14027H36.3943L38.8046 12.4945L41.0517 4.14027H42.6827ZM49.1579 3.95905C50.3661 3.95905 51.3447 4.32753 52.0937 5.0645C52.8428 5.78938 53.2173 6.84046 53.2173 8.21774V14.0712H51.5863V8.45333C51.5863 7.46265 51.3386 6.70757 50.8433 6.18807C50.348 5.65649 49.6714 5.3907 48.8136 5.3907C47.9438 5.3907 47.2491 5.66253 46.7296 6.20619C46.2222 6.74985 45.9685 7.54118 45.9685 8.58018V14.0712H44.3194V4.14027H45.9685V5.55379C46.2947 5.04638 46.7356 4.65373 47.2914 4.37586C47.8592 4.09799 48.4814 3.95905 49.1579 3.95905ZM57.5602 0.660836V14.0712H55.9111V0.660836H57.5602ZM64.702 14.2343C63.7717 14.2343 62.926 14.0228 62.1649 13.6C61.4159 13.1771 60.8239 12.5791 60.389 11.8059C59.9661 11.0206 59.7547 10.1145 59.7547 9.0876C59.7547 8.07276 59.9722 7.17874 60.4071 6.40553C60.8541 5.62024 61.4582 5.02221 62.2193 4.61145C62.9804 4.1886 63.8322 3.97717 64.7745 3.97717C65.7168 3.97717 66.5686 4.1886 67.3297 4.61145C68.0908 5.02221 68.6889 5.6142 69.1238 6.38741C69.5708 7.16062 69.7943 8.06068 69.7943 9.0876C69.7943 10.1145 69.5648 11.0206 69.1057 11.8059C68.6587 12.5791 68.0486 13.1771 67.2753 13.6C66.5021 14.0228 65.6444 14.2343 64.702 14.2343ZM64.702 12.7845C65.294 12.7845 65.8497 12.6456 66.3692 12.3677C66.8887 12.0898 67.3055 11.673 67.6197 11.1173C67.9459 10.5615 68.109 9.88497 68.109 9.0876C68.109 8.29023 67.9519 7.61367 67.6378 7.05793C67.3237 6.50218 66.9129 6.09142 66.4055 5.82563C65.8981 5.54775 65.3484 5.40882 64.7564 5.40882C64.1523 5.40882 63.5966 5.54775 63.0891 5.82563C62.5938 6.09142 62.1951 6.50218 61.8931 7.05793C61.5911 7.61367 61.44 8.29023 61.44 9.0876C61.44 9.89705 61.585 10.5796 61.875 11.1354C62.177 11.6911 62.5757 12.1079 63.071 12.3858C63.5664 12.6516 64.11 12.7845 64.702 12.7845ZM71.3464 9.06948C71.3464 8.05464 71.5518 7.16666 71.9626 6.40553C72.3734 5.63232 72.9351 5.0343 73.6479 4.61145C74.3728 4.1886 75.1762 3.97717 76.0582 3.97717C76.928 3.97717 77.6831 4.16444 78.3234 4.53896C78.9638 4.91348 79.441 5.38466 79.7551 5.95248V4.14027H81.4223V14.0712H79.7551V12.2227C79.4289 12.8026 78.9396 13.2859 78.2872 13.6725C77.6469 14.047 76.8978 14.2343 76.0401 14.2343C75.1581 14.2343 74.3607 14.0168 73.6479 13.5819C72.9351 13.1469 72.3734 12.5368 71.9626 11.7515C71.5518 10.9663 71.3464 10.0722 71.3464 9.06948ZM79.7551 9.0876C79.7551 8.33855 79.6041 7.68616 79.302 7.13041C79 6.57467 78.5892 6.15182 78.0697 5.86187C77.5623 5.55984 77.0005 5.40882 76.3844 5.40882C75.7682 5.40882 75.2064 5.55379 74.699 5.84375C74.1916 6.1337 73.7869 6.55655 73.4848 7.11229C73.1828 7.66804 73.0318 8.32043 73.0318 9.06948C73.0318 9.8306 73.1828 10.4951 73.4848 11.0629C73.7869 11.6186 74.1916 12.0475 74.699 12.3496C75.2064 12.6395 75.7682 12.7845 76.3844 12.7845C77.0005 12.7845 77.5623 12.6395 78.0697 12.3496C78.5892 12.0475 79 11.6186 79.302 11.0629C79.6041 10.4951 79.7551 9.83664 79.7551 9.0876ZM83.593 9.06948C83.593 8.05464 83.7984 7.16666 84.2091 6.40553C84.6199 5.63232 85.1817 5.0343 85.8945 4.61145C86.6194 4.1886 87.4288 3.97717 88.3229 3.97717C89.0961 3.97717 89.8149 4.1584 90.4794 4.52084C91.1439 4.8712 91.6513 5.33633 92.0016 5.91624V0.660836H93.6689V14.0712H92.0016V12.2046C91.6754 12.7966 91.1922 13.2859 90.5519 13.6725C89.9116 14.047 89.1625 14.2343 88.3047 14.2343C87.4228 14.2343 86.6194 14.0168 85.8945 13.5819C85.1817 13.1469 84.6199 12.5368 84.2091 11.7515C83.7984 10.9663 83.593 10.0722 83.593 9.06948ZM92.0016 9.0876C92.0016 8.33855 91.8506 7.68616 91.5486 7.13041C91.2465 6.57467 90.8358 6.15182 90.3163 5.86187C89.8089 5.55984 89.2471 5.40882 88.6309 5.40882C88.0148 5.40882 87.453 5.55379 86.9456 5.84375C86.4382 6.1337 86.0334 6.55655 85.7314 7.11229C85.4294 7.66804 85.2783 8.32043 85.2783 9.06948C85.2783 9.8306 85.4294 10.4951 85.7314 11.0629C86.0334 11.6186 86.4382 12.0475 86.9456 12.3496C87.453 12.6395 88.0148 12.7845 88.6309 12.7845C89.2471 12.7845 89.8089 12.6395 90.3163 12.3496C90.8358 12.0475 91.2465 11.6186 91.5486 11.0629C91.8506 10.4951 92.0016 9.83664 92.0016 9.0876Z" fill="black"/>
</svg>
