<svg width="49" height="38" viewBox="0 0 49 38" fill="none" xmlns="http://www.w3.org/2000/svg">
<rect x="0.760162" y="0.566315" width="47.5606" height="36.0098" rx="18.0049" fill="white"/>
<rect x="0.760162" y="0.566315" width="47.5606" height="36.0098" rx="18.0049" stroke="url(#paint0_linear_1_1748)" stroke-width="1.13263"/>
<rect x="4.72412" y="4.53052" width="40.1628" height="28.0814" rx="14.0407" fill="white"/>
<rect width="16" height="16" transform="translate(16.8057 10.5712)" fill="white"/>
<path d="M20.8058 15.2378H24.1392C24.316 15.2378 24.4855 15.308 24.6106 15.4331C24.7356 15.5581 24.8058 15.7276 24.8058 15.9045C24.8058 16.0813 24.7356 16.2508 24.6106 16.3759C24.4855 16.5009 24.316 16.5711 24.1392 16.5711H20.8058C20.629 16.5711 20.4594 16.5009 20.3344 16.3759C20.2094 16.2508 20.1392 16.0813 20.1392 15.9045C20.1392 15.7276 20.2094 15.5581 20.3344 15.4331C20.4594 15.308 20.629 15.2378 20.8058 15.2378ZM25.4725 20.5711H28.8058C28.9826 20.5711 29.1522 20.6414 29.2772 20.7664C29.4023 20.8914 29.4725 21.061 29.4725 21.2378C29.4725 21.4146 29.4023 21.5842 29.2772 21.7092C29.1522 21.8342 28.9826 21.9045 28.8058 21.9045H25.4725C25.2957 21.9045 25.1261 21.8342 25.0011 21.7092C24.8761 21.5842 24.8058 21.4146 24.8058 21.2378C24.8058 21.061 24.8761 20.8914 25.0011 20.7664C25.1261 20.6414 25.2957 20.5711 25.4725 20.5711ZM20.8058 17.9045H28.8058C28.9826 17.9045 29.1522 17.9747 29.2772 18.0997C29.4023 18.2247 29.4725 18.3943 29.4725 18.5711C29.4725 18.7479 29.4023 18.9175 29.2772 19.0425C29.1522 19.1676 28.9826 19.2378 28.8058 19.2378H20.8058C20.629 19.2378 20.4594 19.1676 20.3344 19.0425C20.2094 18.9175 20.1392 18.7479 20.1392 18.5711C20.1392 18.3943 20.2094 18.2247 20.3344 18.0997C20.4594 17.9747 20.629 17.9045 20.8058 17.9045Z" fill="black"/>
<defs>
<linearGradient id="paint0_linear_1_1748" x1="48.6932" y1="16.1553" x2="0.37122" y2="16.6352" gradientUnits="userSpaceOnUse">
<stop stop-color="#7A87FB"/>
<stop offset="1" stop-color="#FFD49C"/>
</linearGradient>
</defs>
</svg>
